<svg xmlns="http://www.w3.org/2000/svg" viewBox="0 0 512 512"><title>Artboard 154</title><g id="CV"><path d="M179.50322,21.33333H405.33333A42.66667,42.66667,0,0,1,448,64V448a42.66667,42.66667,0,0,1-42.66667,42.66667H106.66667A42.66667,42.66667,0,0,1,64,448V136.83656a21.33332,21.33332,0,0,1,6.24839-15.08495l94.16989-94.16989A21.33334,21.33334,0,0,1,179.50322,21.33333Z" style="fill:#ccd4ff"/><rect x="85.33333" y="149.33333" width="149.33333" height="64" rx="31.99997" ry="31.99997" style="fill:#a4b1ff"/><path d="M213.33333,51.50319v88.99362a30.16986,30.16986,0,0,1-30.16986,30.16986H94.16986A30.16986,30.16986,0,0,1,64,140.49681v-.00005a30.16985,30.16985,0,0,1,8.83655-21.33331l88.99357-88.99357a30.16985,30.16985,0,0,1,21.33331-8.83655h0A30.16986,30.16986,0,0,1,213.33333,51.50319Z" style="fill:#dfe5ff"/><rect x="69.49034" y="80.91506" width="138.35265" height="30.16989" rx="15.08493" ry="15.08493" transform="translate(-27.26772 126.16989) rotate(-45)" style="fill:#eff2ff"/><rect x="234.66667" y="85.33333" width="149.33333" height="170.66667" rx="21.33333" ry="21.33333" style="fill:#005eee"/><path d="M170.66667,426.66667H149.33333a21.33334,21.33334,0,0,1,0-42.66667h21.33334a21.33334,21.33334,0,0,1,0,42.66667Z" style="fill:#163969"/><path d="M362.66667,426.66667H256A21.33334,21.33334,0,0,1,256,384H362.66667a21.33334,21.33334,0,0,1,0,42.66667Z" style="fill:#163969"/><path d="M362.66667,341.33333H149.33333a21.33333,21.33333,0,1,1,0-42.66666H362.66667a21.33333,21.33333,0,1,1,0,42.66666Z" style="fill:#163969"/><circle cx="309.33333" cy="138.66667" r="32" style="fill:gold"/><path d="M341.33333,192h-64a21.33334,21.33334,0,0,0,0,42.66667h64a21.33333,21.33333,0,1,0,0-42.66667Z" style="fill:gold"/><rect x="256" y="256" width="106.66667" height="21.33333" rx="10.66666" ry="10.66666" style="fill:#a4b1ff"/></g></svg>